<?xml version="1.0" encoding="UTF-8"?>
<svg id="Layer_2" data-name="Layer 2" xmlns="http://www.w3.org/2000/svg" viewBox="0 0 1548.83 1588.83">
  <defs>
    <style>
      .cls-1 {
        fill: #088ed4;
      }

      .cls-1, .cls-2, .cls-3, .cls-4, .cls-5, .cls-6, .cls-7, .cls-8, .cls-9 {
        stroke-width: 0px;
      }

      .cls-2 {
        fill: #f7c81e;
      }

      .cls-3 {
        fill: #90be32;
      }

      .cls-4 {
        fill: #dd9a52;
      }

      .cls-5 {
        fill: #3e9ea2;
      }

      .cls-6 {
        fill: #f15d58;
      }

      .cls-7 {
        fill: #d82419;
      }

      .cls-8 {
        fill: #dc501c;
      }

      .cls-9 {
        fill: #fbc19c;
      }
    </style>
  </defs>
  <g id="Layer_1-2" data-name="Layer 1">
    <g>
      <path class="cls-3" d="m1511.68,822.64h-199.53c-12.4,0-22.46-10.05-22.46-22.46v-224.87c0-20.66,25.54-30.36,39.26-14.9,55.95,90.14,121.85,165.98,199.53,224.87,12.85,14.49,2.57,37.36-16.8,37.36Z"/>
      <path class="cls-5" d="m38.98,985.98h202.61c11.35,0,20.55-9.2,20.55-20.55v-228.35c0-18.91-23.38-27.78-35.92-13.64-49.89,92.02-118.25,167.39-202.61,228.35-11.76,13.26-2.35,34.19,15.37,34.19Z"/>
      <path class="cls-6" d="m1025.61,198.51h-217.15c-9.69,0-15.78-10.39-11.11-18.88,29.25-53.15,66.32-100.97,111.21-143.46,4.94-4.67,12.72-4.61,17.58.15,43.13,42.25,79.51,90.3,110.42,143.03,4.97,8.48-1.12,19.16-10.95,19.16Z"/>
      <rect class="cls-1" x="792.29" y="231.37" width="255.15" height="250.6" rx="20.55" ry="20.55"/>
      <rect class="cls-8" x="287.79" y="1027.57" width="262.14" height="291.15" rx="59.07" ry="59.07"/>
      <rect class="cls-5" y="1013.59" width="262.14" height="305.13" rx="60.47" ry="60.47"/>
      <rect class="cls-8" x="998" y="1027.57" width="262.14" height="291.15" rx="59.07" ry="59.07"/>
      <rect class="cls-3" x="1286.7" y="850.02" width="262.14" height="468.7" rx="74.95" ry="74.95"/>
      <rect class="cls-4" x="1109.15" y="687.84" width="135.61" height="291.34" rx="67.81" ry="67.81"/>
      <rect class="cls-4" x="298.48" y="687.84" width="135.61" height="291.34" rx="67.81" ry="67.81"/>
      <path class="cls-2" d="m620.82,349.85h20.81c68.56,0,124.22,55.66,124.22,124.22h0c0,4.36-3.54,7.9-7.9,7.9h-253.45c-4.36,0-7.9-3.54-7.9-7.9h0c0-68.56,55.66-124.22,124.22-124.22Z"/>
      <path class="cls-7" d="m1075.4,682.24v290.79c0,18.53-15.02,33.56-33.56,33.56h-26.43c-16.09,0-29.8-11.45-32.95-27.23-19.61-97.91-106.05-171.68-209.74-171.68s-190.13,73.77-209.73,171.68c-3.16,15.78-16.86,27.23-32.95,27.23h-26.44c-18.53,0-33.56-15.02-33.56-33.56v-290.79c0-18.53,15.02-33.56,33.56-33.56h538.25c18.53,0,33.56,15.02,33.56,33.56Z"/>
      <rect class="cls-9" x="422.85" y="514.48" width="699.73" height="113.24" rx="35.83" ry="35.83"/>
      <rect class="cls-3" x="313.65" y="597.44" width="44.5" height="44.5" rx="16.54" ry="16.54"/>
      <rect class="cls-7" x="474.23" y="264.93" width="38.55" height="38.55" rx="12.56" ry="12.56"/>
      <circle class="cls-8" cx="276.14" cy="423.84" r="16.08"/>
      <circle class="cls-2" cx="680.29" cy="251.07" r="13.86"/>
      <circle class="cls-2" cx="167.09" cy="273.32" r="13.28"/>
      <circle class="cls-5" cx="336.95" cy="199.92" r="15.38"/>
      <circle class="cls-2" cx="1202.47" cy="399.5" r="25.51"/>
      <circle class="cls-3" cx="1325.5" cy="279.96" r="15.03"/>
      <circle class="cls-8" cx="1162.27" cy="182.45" r="20.27"/>
      <circle class="cls-4" cx="1429.3" cy="514.48" r="20.27"/>
      <circle class="cls-5" cx="1073.46" cy="16.04" r="16.04"/>
      <circle class="cls-3" cx="766.62" cy="30.76" r="18.17"/>
      <circle class="cls-3" cx="530.87" cy="136.14" r="9.61"/>
      <g>
        <path class="cls-3" d="m158.09,1390.98v53.61h-45.59v139.82h-55.27v-139.82H11.64v-53.61h146.45Z"/>
        <path class="cls-2" d="m341.71,1559.68c-19.81,19.44-44.07,29.15-72.81,29.15s-53.01-9.71-72.81-29.15c-19.8-19.43-29.71-43.43-29.71-71.98s9.9-52.55,29.71-71.98c19.8-19.43,44.07-29.15,72.81-29.15s53.01,9.72,72.81,29.15c19.8,19.44,29.71,43.43,29.71,71.98s-9.91,52.55-29.71,71.98Zm-106.66-38.41c8.93,8.94,20.22,13.4,33.85,13.4s24.91-4.46,33.85-13.4c8.93-8.93,13.4-20.12,13.4-33.57s-4.47-24.64-13.4-33.57c-8.94-8.93-20.22-13.4-33.85-13.4s-24.92,4.47-33.85,13.4c-8.94,8.94-13.4,20.13-13.4,33.57s4.46,24.64,13.4,33.57Z"/>
        <path class="cls-7" d="m552.13,1390.98l-65.49,119.93v73.5h-55.27v-73.5l-65.49-119.93h61.34l31.78,67.98,31.78-67.98h61.34Z"/>
        <path class="cls-6" d="m737.27,1390.98h55.27v193.43h-55.27v-71.29h-46.98v71.29h-55.27v-193.43h55.27v68.53h46.98v-68.53Z"/>
        <path class="cls-2" d="m995.5,1559.68c-19.81,19.44-44.07,29.15-72.81,29.15s-53.01-9.71-72.81-29.15c-19.8-19.43-29.71-43.43-29.71-71.98s9.9-52.55,29.71-71.98c19.8-19.43,44.07-29.15,72.81-29.15s53.01,9.72,72.81,29.15c19.8,19.44,29.71,43.43,29.71,71.98s-9.91,52.55-29.71,71.98Zm-106.66-38.41c8.93,8.94,20.22,13.4,33.85,13.4s24.91-4.46,33.85-13.4c8.93-8.93,13.4-20.12,13.4-33.57s-4.47-24.64-13.4-33.57c-8.94-8.93-20.22-13.4-33.85-13.4s-24.92,4.47-33.85,13.4c-8.94,8.94-13.4,20.13-13.4,33.57s4.46,24.64,13.4,33.57Z"/>
        <path class="cls-5" d="m1185.74,1569.77c-14.55,12.71-33.53,19.07-56.92,19.07s-42.37-6.36-56.92-19.07c-14.55-12.71-21.83-29.38-21.83-50.02v-128.77h55.27v122.69c0,14.37,7.83,21.55,23.49,21.55s23.49-7.18,23.49-21.55v-122.69h55.27v128.77c0,20.63-7.28,37.3-21.83,50.02Z"/>
        <path class="cls-8" d="m1308.99,1588.83c-21,0-38.5-4.38-52.5-13.13-14-8.75-23.4-20.59-28.18-35.51l47.25-27.36c6.45,16.4,18.05,24.59,34.82,24.59,12.53,0,18.79-3.32,18.79-9.95,0-1.84-.46-3.5-1.38-4.97-.92-1.47-2.67-2.76-5.25-3.87-2.58-1.11-4.84-1.98-6.77-2.63-1.93-.64-5.3-1.61-10.09-2.9-4.79-1.29-8.38-2.3-10.78-3.04-38.5-11.61-57.75-32.33-57.75-62.17,0-17.69,6.4-32.33,19.21-43.94,12.8-11.61,29.61-17.41,50.43-17.41,16.39,0,31.09,3.87,44.07,11.61s22.52,18.89,28.6,33.44l-45.87,26.8c-5.34-13.63-14.19-20.45-26.53-20.45-4.79,0-8.43.97-10.92,2.9s-3.73,4.38-3.73,7.32c0,4.05,2.16,7.18,6.49,9.4,4.33,2.21,12.66,5.07,25.01,8.57,9.21,2.76,16.76,5.39,22.66,7.88,5.89,2.49,12.06,5.99,18.51,10.5,6.45,4.52,11.28,10.32,14.51,17.41,3.22,7.09,4.84,15.43,4.84,25.01,0,19.71-6.77,34.96-20.31,45.73s-31.92,16.17-55.13,16.17Z"/>
        <path class="cls-4" d="m1461.79,1533.57h71.84v50.84h-127.11v-193.43h125.73v50.29h-70.46v21h53.55v49.74h-53.55v21.55Z"/>
      </g>
    </g>
  </g>
</svg>